<svg xmlns="http://www.w3.org/2000/svg" width="223" height="160.635" viewBox="0 0 223 160.635"><g><g fill="#008574"><path d="M61.141 22.589v4.25c-5.195 0-5.51-2.243-5.51-8.107V2.126h4.249V18.1c0 3.7 0 4.489 1.261 4.489zm18.259 4.29s-.943 1.141-6.768 1.141c-5.863 0-8.146-1.378-8.146-7.556h4.29c0 2.991.786 3.305 4.486 3.305 3.817 0 4.958-.983 4.958-.983zm-2.282-20.5H66.806V2.126h10.311zM107.9 28.335c-4.761 2.2-8.461.944-10.664-4.448-1.535-3.778-4.25-2.321-4.486-1.141l-1.22 6.612H87.2L92.51 0h4.328L93.77 17.119c2.636-.394 5.784 1.023 7.279 4.919 1.1 2.872 2.361 3.818 5.667 2.2zm24.912-4.172l1.418 4.014c-9.132 3.109-12.4.2-12.4-10.232V0h4.251v17.945c.003 7.477 1.772 8.068 6.731 6.218zm-1.22-17h-2.44V2.126h2.44zm1.181-5.037h2.44v5.037h-2.44zm34.554 26.209c-4.76 2.2-8.461.944-10.664-4.448-1.535-3.778-4.249-2.321-4.486-1.141l-1.22 6.612h-4.328L151.941 0h4.328L153.2 17.119c2.636-.394 5.785 1.023 7.279 4.919 1.1 2.872 2.361 3.818 5.668 2.2zm-17.72 28.102a19.94 19.94 0 01-10.858-2.937 16 16 0 00-16.412 0 21.491 21.491 0 01-21.7 0 16 16 0 00-16.41 0 19.923 19.923 0 01-10.849 2.94 19.91 19.91 0 01-10.851-2.94 14.624 14.624 0 00-8.2-2.264v-5.523a19.9 19.9 0 0110.846 2.941 14.638 14.638 0 008.2 2.264 14.624 14.624 0 008.2-2.264 21.494 21.494 0 0121.705 0 16 16 0 0016.408 0 21.5 21.5 0 0121.7 0 16.019 16.019 0 0016.422 0 19.936 19.936 0 0110.857-2.941v5.519a14.668 14.668 0 00-8.205 2.268 19.93 19.93 0 01-10.853 2.937zm-25.432 38.811h10.693v6.821h-10.693zM31.733 77.537a2.428 2.428 0 102.428-2.428 2.428 2.428 0 00-2.428 2.428zm9.144-11.329l-5.712-3.729c-.135.2-3.415 4.79-12.537 4.79H10.066v6.822h12.562c13.046 0 18.043-7.561 18.249-7.883zM23.963 77.537a2.428 2.428 0 102.429-2.428 2.429 2.429 0 00-2.429 2.428zM7.662 97.9v7.009a10.4 10.4 0 006.909-3.926 12.3 12.3 0 002.08-8.476v-2.015H9.83v2.235a3.824 3.824 0 00.039.512 5.576 5.576 0 01-.769 3.673 3.108 3.108 0 01-1.438.988zm201.262 21.025c-3.816-.695-4.223-3.065-4.257-3.775l-3.41.074h-3.411c0 2.981 2.061 8.994 9.857 10.411a29.783 29.783 0 005.221.4 63.287 63.287 0 009.409-.787l-1.135-6.726c-2.091.356-8.372 1.112-12.274.403zM33.635 91.561a2.428 2.428 0 10-2.428 2.428 2.427 2.427 0 002.428-2.428zm.922 27.351a.985.985 0 01-.525-1.626 23.189 23.189 0 002.077-2.681 6.8 6.8 0 00.463-6.979 6 6 0 00-5.389-3.159h-9.748c-1.514 0-4.936.035-6.24 3.354-.53 1.349-4.254 2.083-6.684 1.985l-.254 6.612a20.3 20.3 0 008.562-1.6 19.426 19.426 0 001.569 2.256 1.065 1.065 0 01-.588 1.726 41.789 41.789 0 01-8.627.74H5.245v6.615h4.386a39.4 39.4 0 0016.428-3.1c3.952 1.908 9.255 3.235 16.376 3.235q1.984 0 4.16-.141v-6.6a46.184 46.184 0 01-12.038-.637zm-7.375-4.241a1.206 1.206 0 01-1.878.015c-1.332-1.618-3.608-4.4-3.743-4.685h9.2c.005.143-2.261 3.009-3.579 4.67z"/><path d="M25.068 90.492h-6.821v1.694a10.989 10.989 0 002.949 7.56c2.4 2.532 5.928 3.816 10.482 3.816h10.707v-6.821H31.678c-1.764 0-4.148-.284-5.482-1.636a4.159 4.159 0 01-1.133-2.684c0-.061.005-.12.005-.181zm175.352-3.82h17.481v6.821H200.42zm12.868-5.406a2.428 2.428 0 10-2.428-2.428 2.428 2.428 0 002.428 2.428zm7.284 0a2.428 2.428 0 10-2.428-2.428 2.428 2.428 0 002.428 2.428zM15.708 77.537a2.428 2.428 0 102.428-2.428 2.428 2.428 0 00-2.428 2.428zm78.666-3.458a2.428 2.428 0 102.426 2.428 2.429 2.429 0 00-2.426-2.428zM41.089 91.561a2.428 2.428 0 10-2.428 2.428 2.428 2.428 0 002.428-2.428zm91.904 34.098a44.1 44.1 0 005.665-.372l-.962-6.753a32.293 32.293 0 01-8.439.021c-2.226-.405-2.659-1.56-2.714-2.233v-1.938h-6.822v2.01c0 2.547 1.739 7.677 8.317 8.872a28.247 28.247 0 004.955.393zm-16.175-33.912h4.008v-6.821h-2.971a1.459 1.459 0 01-1.45-1.612l.454-4.257H110l-.486 4.566a1.458 1.458 0 01-1.45 1.3h-3.015v6.821h1.978a1.458 1.458 0 011.449 1.613l-3.52 33.042h6.86l3.553-33.351a1.458 1.458 0 011.449-1.301zm54.249 20.153v-6.242a1.706 1.706 0 011.706-1.706h4.411v-6.823h-4.411a1.706 1.706 0 01-1.706-1.706V92.87a1.706 1.706 0 011.706-1.707h4.411v-6.821h-4.411a1.706 1.706 0 01-1.706-1.706v-5.158h-6.821v5.158a1.706 1.706 0 01-1.706 1.706h-6.166v6.821h6.166a1.706 1.706 0 011.706 1.707v2.553a1.706 1.706 0 01-1.706 1.706h-6.166v6.822h6.166a1.706 1.706 0 011.706 1.706v3.707a1.265 1.265 0 01-1.407 1.263 8.474 8.474 0 00-4.2.586 8.686 8.686 0 1011.283 11.318 1.275 1.275 0 011.784-.685l4.016 2.16 3.234-6.006-6.253-3.364a3.109 3.109 0 01-1.636-2.736zm-9.2 9.242a1.875 1.875 0 111.875-1.875 1.877 1.877 0 01-1.872 1.874z"/><path d="M42.57 81.254H5.471a5.315 5.315 0 00-3.943 1.514C-.065 84.391-.023 86.525.01 88.239l.01 6.43h6.821v-5.937a.656.656 0 01.656-.656h35.377a.656.656 0 01.656.656v5.937h6.821v-5.634a7.781 7.781 0 00-7.781-7.781zm46.948-4.747a2.428 2.428 0 10-2.428 2.428 2.429 2.429 0 002.428-2.428zm-16.326 28.165c0-7.932 5.255-13.621 10.821-14.314v-6.752L63.3 83.537v6.821h4.777a1.7 1.7 0 011.453 2.56 23.861 23.861 0 00-3.015 11.754c0 11.616 7.924 21.065 17.666 21.065v-6.682c-6.061 0-10.989-6.455-10.989-14.383zm49.415 49.689q-.2-.356-.389-.731c-.133-.239-.269-.482-.4-.733-.025-.045-.055-.1-.091-.153s-.05-.109-.074-.154a.173.173 0 00-.16-.082.2.2 0 01-.034 0 .169.169 0 00-.14.073 8.873 8.873 0 00-.574 1.046 4.113 4.113 0 00-.364 1.164v.069a.365.365 0 00.038.155.285.285 0 00.18.117c.06.022.125.043.195.065a.466.466 0 00.178.03c.306-.028.616-.065.933-.107s.648-.067.987-.11c-.05-.125-.1-.241-.15-.343s-.086-.204-.135-.306zm63.245.648a3.92 3.92 0 01-.024-.136c-.106-.39-.2-.776-.294-1.157a8.109 8.109 0 01-.155-1.182c0-.033-.012-.068-.018-.1l-.011-.067c-.086-.289-.166-.579-.243-.868s-.17-.561-.257-.849c-.038-.355-.075-.716-.116-1.083a1.716 1.716 0 00-.493-.964 1.326 1.326 0 00-.361-.305.764.764 0 00-.439.042c-.242.064-.484.13-.722.192a1.293 1.293 0 01-.723-.016.462.462 0 00-.213.018 1.483 1.483 0 01-.219.089 2.538 2.538 0 01-.752.214 1.861 1.861 0 01-.779-.046 1.174 1.174 0 00-.5-.022.934.934 0 00-.466.232.617.617 0 01-.145.094.526.526 0 00-.171.062.982.982 0 00-.478.374.8.8 0 00.018.557 1.625 1.625 0 00.181.338.99.99 0 01.126.347.644.644 0 00.24.363 1.133 1.133 0 00.385.165 2.191 2.191 0 00.645.087 5.868 5.868 0 00.656-.072c.116-.029.238-.063.365-.095s.275-.04.406-.05a.178.178 0 01.153.044.237.237 0 01.028.171 1.477 1.477 0 01-.6 1.044 1.643 1.643 0 01-1.2.335 6.936 6.936 0 01-.577-.1 4.453 4.453 0 00-.556-.086 1.332 1.332 0 01-.815-.36 2.608 2.608 0 01-.524-.7 1.966 1.966 0 01-.2-.614q-.032-.311-.078-.617a2.255 2.255 0 01.077-.763 6.5 6.5 0 00.152-.757 3.635 3.635 0 01.3-1.146 9.254 9.254 0 01.546-1.067 2.545 2.545 0 01.8-.879 3.424 3.424 0 011.095-.478c.377-.085.742-.158 1.1-.219a3.737 3.737 0 011.13-.052h.213l.208-.036c.046-.02.093-.047.148-.078a.224.224 0 00.1-.123 4.7 4.7 0 00.276-.767 5.36 5.36 0 00.166-.78.952.952 0 00-.113-.542.515.515 0 00-.383-.265 30.042 30.042 0 00-1.868-.17 4.761 4.761 0 00-1.051.054 5.08 5.08 0 00-.7.167 14.561 14.561 0 01-1.689.484 3.381 3.381 0 00-.925.619 4.384 4.384 0 00-.8.754 1.314 1.314 0 01-.261.373c-.112.11-.227.22-.34.332a3.812 3.812 0 00-.7.841 2.524 2.524 0 00-.356 1.048 6.02 6.02 0 01-.147.807 5.934 5.934 0 00-.109.8c-.022.351-.033.7-.042 1.052a3.559 3.559 0 00.038.483 3.342 3.342 0 00.135.555 4.724 4.724 0 01.159.691 1.211 1.211 0 00.309.634.4.4 0 01.049.2.714.714 0 00.033.223l.236.627a1.241 1.241 0 00.377.571q.333.3.682.577c.233.187.477.364.733.534a2.032 2.032 0 00.465.191 1.967 1.967 0 01.5.2 3.462 3.462 0 001.609.41 7.825 7.825 0 001.646-.162 2.913 2.913 0 00.469-.147 2.634 2.634 0 00.436-.211 8.225 8.225 0 00.757-.494q.375-.255.766-.531a.272.272 0 01.23-.039.266.266 0 01.125.206 3.018 3.018 0 01.04.344 3.318 3.318 0 00.04.342c0 .152.011.306.027.468 0 .152.006.3.02.451a.383.383 0 00.1.246.262.262 0 00.221.12 3.455 3.455 0 01.693.091 1.038 1.038 0 00.478.022 1.671 1.671 0 00.229-.056.9.9 0 00.448-.272.743.743 0 00.1-.49c-.014-.067-.023-.135-.037-.2-.007-.026-.01-.05-.014-.072z"/><path d="M128.693 158.587a.4.4 0 00-.062-.2c-.165-.248-.329-.493-.493-.742s-.355-.48-.542-.7c-.162-.211-.318-.431-.468-.655s-.293-.433-.431-.658c-.213-.36-.433-.716-.655-1.065s-.453-.7-.688-1.048-.467-.668-.7-1-.484-.651-.713-.98a1.513 1.513 0 01-.149-.271 3.409 3.409 0 00-.167-.306c-.231-.419-.465-.832-.7-1.241s-.464-.84-.694-1.259a1.19 1.19 0 00-.127-.188 1.493 1.493 0 00-.161-.185 1.147 1.147 0 00-.7-.346 1.394 1.394 0 00-.314-.027 2.15 2.15 0 00-.467.062.412.412 0 00-.359.317 2.891 2.891 0 01-.165.486c-.011.012-.022.025-.034.036a.11.11 0 01-.017.052c-.143.405-.279.816-.413 1.232s-.3.807-.467 1.2q-.538 1.356-1.1 2.709c-.384.9-.769 1.8-1.148 2.706q-.261.59-.52 1.2c-.161.391-.325.792-.488 1.195a2.3 2.3 0 00-.139.38c-.035.126-.07.236-.1.329v.207a.965.965 0 00.037.276.428.428 0 00.236.257 2.47 2.47 0 001.129.2 1.36 1.36 0 001.011-.634l.139-.245.123-.243c.1-.242.212-.486.326-.729s.206-.481.31-.712a.706.706 0 01.631-.512c.343-.05.685-.1 1.029-.157a4.014 4.014 0 011.046-.057c.357 0 .713.018 1.068.043a9.872 9.872 0 001.048-.01 1.947 1.947 0 011.163.226 1.981 1.981 0 01.775.838c.051.115.095.222.134.324s.109.227.172.339a8.032 8.032 0 00.49.744 3.435 3.435 0 00.613.634.617.617 0 00.273.128h.054a.4.4 0 00.212-.076 4.346 4.346 0 00.762-.685 1.722 1.722 0 00.41-.948v-.138c0-.047-.009-.082-.01-.103zm-6.791-3.466a23.23 23.23 0 01-.933.107.466.466 0 01-.178-.03 4.449 4.449 0 01-.195-.065.285.285 0 01-.18-.117.365.365 0 01-.038-.155v-.069a4.113 4.113 0 01.364-1.164 8.873 8.873 0 01.574-1.046.169.169 0 01.14-.073.2.2 0 00.034 0 .173.173 0 01.16.082c.024.045.049.1.074.154s.066.108.091.153c.135.251.271.494.4.733s.253.494.389.731c.049.1.095.205.132.307s.1.218.15.343c-.336.042-.666.08-.986.109zm-13.325-6.521c-.079-.38-.175-.606-.291-.675a1.522 1.522 0 00-.728-.145c-.393-.016-.787-.027-1.179-.032s-.77-.018-1.164-.035a3.287 3.287 0 01-.658-.08 1.988 1.988 0 00-.643-.011c-.428.048-.85.086-1.269.11s-.84.033-1.269.022a2.3 2.3 0 01-1.079.092 31.238 31.238 0 01-1.057-.152 3.3 3.3 0 00-.588-.036 2.487 2.487 0 00-.575.05.141.141 0 01-.14 0 12.445 12.445 0 00-.793-.183c-.218-.044-.431-.107-.637-.16a1 1 0 00-.19-.025 1 1 0 00-1.011.926c0 .057 0 .116-.007.173a4.756 4.756 0 00.024.709c.024.29.052.584.088.884a1.236 1.236 0 00.289.65 1.108 1.108 0 00.584.316 7.9 7.9 0 00.871.153c.28.033.564.06.856.081q.488.051.979.066a7.123 7.123 0 01.979.064.845.845 0 01.556.223.9.9 0 01.159.574c0 .806.01 1.607.024 2.417s.045 1.611.095 2.417a1.279 1.279 0 01-.011.414l-.047.395h-.033v.415a1.409 1.409 0 01-.048.448 1.557 1.557 0 00-.036.706 4.12 4.12 0 01.106.676.326.326 0 00.138.262.505.505 0 00.283.077c.275.007.548.018.824.037a4.42 4.42 0 01.818.173.633.633 0 00.215.04.769.769 0 00.432-.13.729.729 0 00.351-.545c.066-.354.135-.722.2-1.1a5.574 5.574 0 00.091-1.1c-.024-.609-.06-1.227-.107-1.849s-.111-1.238-.158-1.849a7.672 7.672 0 01-.042-.588 4.9 4.9 0 01.012-.6c.06-.667.148-1.044.267-1.134a2.962 2.962 0 011.212-.116 1.524 1.524 0 01.21.021 1.125 1.125 0 00.192.019c.328.005.649.01.964.013s.649-.014.965-.023a1.265 1.265 0 00.72-.234 1.13 1.13 0 00.338-.618 1.873 1.873 0 00.054-.242 2.211 2.211 0 00.019-.259v-.223a5.589 5.589 0 00-.03-.621 5.333 5.333 0 00-.125-.858zm95.033-4.1a3.649 3.649 0 00-.233-.708 11.253 11.253 0 00-.3-.765 6.852 6.852 0 00-.361-.715 7.254 7.254 0 00-.487-.811 2.548 2.548 0 00-.7-.64c-.292-.195-.585-.4-.869-.6s-.573-.388-.877-.567a1.671 1.671 0 00-.434-.19l-.455-.113a1.2 1.2 0 00-.333-.053 1.222 1.222 0 01-.336-.069 2.266 2.266 0 00-.538-.1 1.081 1.081 0 00-.57.1 1.817 1.817 0 01-.549.1 1 1 0 01-.579-.127.6.6 0 00-.315-.058l-.088.019a.834.834 0 00-.23.082c-.12.05-.243.1-.361.162a1.306 1.306 0 01-.34.158 2.471 2.471 0 00-.653.379 3.715 3.715 0 00-.549.551 3.99 3.99 0 01-.305.359c-.1.127-.2.246-.3.359q-.381.413-.723.865a3.215 3.215 0 00-.472.971c-.139.5-.263 1-.367 1.513s-.225 1.027-.318 1.536a4.74 4.74 0 00-.059 1 3.564 3.564 0 00.05.36 3.67 3.67 0 00.168.6c.082.182.161.371.236.569l.218.572a6.529 6.529 0 00.343.743 1.38 1.38 0 00.6.552c.363.178.729.369 1.1.577a3.65 3.65 0 001.209.394q.474.064.952.179c.318.065.641.126.972.174q.3.027.629.03a1.675 1.675 0 00.252-.034 1.473 1.473 0 00.376-.13l.222-.081c.082-.015.164-.033.245-.05v.033c.21-.055.418-.106.63-.15a2.358 2.358 0 00.6-.213 13.951 13.951 0 001.842-1.1 4.121 4.121 0 001.328-1.649.058.058 0 01.025-.059.046.046 0 01.032-.024c.153-.316.309-.627.473-.935a2.788 2.788 0 00.285-1.017 8.318 8.318 0 00-.012-1.358 3.533 3.533 0 00-.074-.621zm-3.233 2.7a1.4 1.4 0 01-.314.419 7.588 7.588 0 01-1.485 1.091 5.534 5.534 0 01-1.446.511l-.315.064a2.175 2.175 0 01-.925-.075 2.044 2.044 0 01-.82-.54 3.294 3.294 0 01-.908-1.63 2.808 2.808 0 01-.052-.448 8.8 8.8 0 01.263-2.285l.777-1.144a3.387 3.387 0 01.988-.959 2.311 2.311 0 01.748-.3l.153-.032c.327-.044.65-.078.969-.1a.414.414 0 01.249.072c.1.051.181.1.267.154a3.91 3.91 0 01.954.926 3.983 3.983 0 01.612 1.174 1.612 1.612 0 01.1.4c.018.136.041.278.072.425a.169.169 0 00.058.006.3.3 0 01.05-.011c.019.3.039.6.063.886s.033.6.048.889a.806.806 0 01-.106.512zm-32.323 7.993a.381.381 0 00-.079-.2c-.189-.23-.373-.461-.561-.693s-.4-.445-.606-.651c-.182-.2-.357-.4-.527-.609s-.333-.4-.491-.615a43.573 43.573 0 00-1.537-1.978c-.266-.325-.528-.622-.791-.927s-.54-.606-.8-.909a1.486 1.486 0 01-.174-.256 3.172 3.172 0 00-.193-.29q-.408-.594-.813-1.17c-.27-.4-.542-.793-.811-1.188a.981.981 0 00-.141-.176 1.366 1.366 0 00-.179-.17 1.143 1.143 0 00-.732-.278 1.326 1.326 0 00-.315 0 2.258 2.258 0 00-.463.105.413.413 0 00-.326.349 2.936 2.936 0 01-.121.5.414.414 0 01-.028.039.166.166 0 01-.012.053c-.107.417-.2.839-.3 1.266s-.224.829-.355 1.237q-.412 1.4-.847 2.8-.452 1.4-.892 2.8c-.138.407-.273.82-.408 1.239s-.25.819-.376 1.235a2.535 2.535 0 00-.1.391 5.366 5.366 0 01-.073.338l.021.206a.956.956 0 00.062.271.439.439 0 00.258.234 2.5 2.5 0 001.146.089 1.361 1.361 0 00.951-.725c.037-.087.074-.17.114-.257s.07-.18.1-.253c.08-.251.167-.5.26-.757s.16-.5.242-.737a.876.876 0 01.19-.369.861.861 0 01.393-.2l1.009-.252a3.954 3.954 0 011.039-.153c.355-.03.709-.05 1.068-.057a10.359 10.359 0 001.044-.108 1.947 1.947 0 011.18.116 1.978 1.978 0 01.85.762c.063.109.119.214.165.31.064.109.13.216.205.322a8.086 8.086 0 00.555.695 3.6 3.6 0 00.672.575.638.638 0 00.283.1c.025 0 .043 0 .055-.007a.392.392 0 00.205-.095 4.282 4.282 0 00.7-.754 1.727 1.727 0 00.319-.981c-.007-.046-.011-.092-.018-.137s-.013-.06-.017-.08zm-7.024-3.153c-.312.07-.619.138-.922.194a.447.447 0 01-.178-.014 1.929 1.929 0 01-.2-.047.283.283 0 01-.188-.1.338.338 0 01-.054-.15c0-.023 0-.045-.008-.069a4.141 4.141 0 01.257-1.193 9.039 9.039 0 01.474-1.1.174.174 0 01.134-.085h.032a.176.176 0 01.169.067 1.88 1.88 0 00.192.29c.158.236.316.468.474.692s.294.468.454.692c.06.1.11.2.159.293s.121.207.183.327c-.341.075-.664.143-.978.203zm-12.515 5.16q-.153-1.354-.3-2.692a17.039 17.039 0 01-.09-2.693 3.032 3.032 0 01-.012-.137l-.012-.139c-.044-.367-.081-.735-.115-1.115s-.07-.734-.113-1.1c-.026-.31-.059-.617-.1-.926s-.078-.617-.116-.925a.621.621 0 00-.173-.4.754.754 0 00-.447-.118 2.45 2.45 0 00-.383 0c-.118 0-.242-.008-.371-.021a1.124 1.124 0 00-.516.095 1.007 1.007 0 00-.395.292c-.182.188-.364.38-.547.58s-.364.38-.533.578q-.642.741-1.289 1.466c-.447.481-.888.972-1.338 1.464a.483.483 0 00-.146-.093.246.246 0 01-.11-.08q-.907-.851-1.787-1.727a16.316 16.316 0 01-1.576-1.887 1.55 1.55 0 00-.114-.148c-.036-.044-.08-.093-.128-.147a1.012 1.012 0 00-.438-.319.659.659 0 00-.247-.036.864.864 0 00-.308.088 1.351 1.351 0 01-.551.119 3.12 3.12 0 01-.541-.02.8.8 0 00-.635.105.85.85 0 00-.249.567c0 .057 0 .115.009.173a1.026 1.026 0 00-.007.189c.036.655.078 1.311.126 1.963s.072 1.286.074 1.932c0 .667 0 1.335-.013 2-.026.657-.017 1.319.02 1.984.018.322.029.646.035.968a5.259 5.259 0 01-.036.968 2.771 2.771 0 00-.013.433 1.869 1.869 0 00.2.767 9.776 9.776 0 00.563 1.057.339.339 0 00.15.148.427.427 0 00.219.073c.241-.013.479-.04.716-.076s.475-.063.712-.111a.6.6 0 00.347-.211.829.829 0 00.1-.421c0-.231-.007-.466-.01-.709a4.4 4.4 0 00-.023-.689 11.963 11.963 0 01-.082-1.327 8.515 8.515 0 00-.119-1.34 6.009 6.009 0 01-.078-1.274c.034-.429.047-.86.044-1.3a.31.31 0 01.028-.14.593.593 0 00.058-.177 1.842 1.842 0 00.186.11c.06.021.117.038.179.057.424.4.853.805 1.281 1.214a16.631 16.631 0 011.239 1.284 3.51 3.51 0 00.287.309 3.194 3.194 0 00.321.271.766.766 0 00.4.162.733.733 0 00.4-.115c.125-.079.241-.155.355-.233a2.246 2.246 0 00.3-.281.908.908 0 00.209-.309c.062-.109.128-.216.189-.325a6.683 6.683 0 01.788-1.1q.459-.5.895-1.022a.1.1 0 01.068-.023.3.3 0 01.107.01c.026.021.052.042.075.063a.106.106 0 01.042.065 5.655 5.655 0 00-.011.52 3.527 3.527 0 000 .5c.015.344.032.684.044 1.017q.041.516.1 1.03.053.671.122 1.323c.049.447.1.891.159 1.337a.632.632 0 00.25.431.682.682 0 00.5.15q.322-.027.66-.072c.226-.031.445-.058.658-.089a1.036 1.036 0 00.634-.331 1.073 1.073 0 00.234-.644v-.415c0-.14.003-.268-.011-.405zm-96.834-13.7a11.74 11.74 0 00-.852-.2 22.727 22.727 0 00-1.762-.338 25.577 25.577 0 00-1.767-.205c-.289-.022-.583-.035-.871-.069q-.877-.141-1.754-.285a17.626 17.626 0 01-1.751-.416 2.938 2.938 0 00-.306-.069 1.968 1.968 0 00-.367-.027 6.79 6.79 0 00-.67-.01.272.272 0 00-.22.049.723.723 0 00-.185.143 1.712 1.712 0 00-.194.3.978.978 0 00-.105.3c-.058.33-.108.659-.154.989s-.094.667-.14 1.009q-.065.374-.113.752c-.045.26-.1.514-.151.761-.095.473-.193.941-.3 1.4s-.207.944-.3 1.419q-.106.505-.181 1.036a6.019 6.019 0 01-.233 1.028 3.653 3.653 0 00-.194.7 4.405 4.405 0 00-.055.411c-.028.381-.041.763-.036 1.15a.917.917 0 00.126.529.817.817 0 00.4.332c.17.076.338.145.51.21a2.936 2.936 0 00.523.142q.775.147 1.556.279c.247.041.5.076.764.108q1.171.192 2.323.375 1.1.175 2.18.34t2.166.327l.408.059.4.024a.522.522 0 00.34-.091.461.461 0 00.168-.289c.051-.19.1-.386.14-.589a3.578 3.578 0 00.072-.374 1.479 1.479 0 00.016-.241 1.133 1.133 0 00-.34-1.009 1.555 1.555 0 00-.972-.491c-.533-.046-1.059-.094-1.582-.152s-1.055-.137-1.568-.242c-.452-.1-.905-.209-1.357-.319a9.923 9.923 0 00-1.369-.256 1.475 1.475 0 01-.654-.2c-.21-.117-.415-.225-.614-.329a.473.473 0 01-.271-.325 1.008 1.008 0 01.033-.519.249.249 0 01.142-.2 1.221 1.221 0 01.429.02c.49.093.991.184 1.5.281s1 .173 1.5.275a2.331 2.331 0 00.487.095 3.284 3.284 0 00.485 0 1.228 1.228 0 00.793-.243.9.9 0 00.288-.705 3.719 3.719 0 00-.034-.7c-.036-.237-.07-.475-.105-.714a.639.639 0 00-.211-.364 1.115 1.115 0 00-.4-.2 12.705 12.705 0 00-1.444-.246q-.717-.1-1.428-.231c-.717-.129-1.111-.254-1.173-.369a2.992 2.992 0 01.056-1.092 1.013 1.013 0 01.049-.184 1.054 1.054 0 01.049-.184 1.016 1.016 0 01.249-.43c.088-.09.261-.108.525-.054a11.756 11.756 0 001.682.257 12.613 12.613 0 011.685.249 9.17 9.17 0 001.774.24 8.019 8.019 0 011.785.267.425.425 0 00.382-.066.521.521 0 00.253-.277c.08-.3.155-.61.225-.926s.15-.622.205-.928a.56.56 0 00-.055-.462.688.688 0 00-.43-.236zm-17.631-2.451a2.305 2.305 0 00-.371-.106 3.639 3.639 0 01-.35-.12 1.13 1.13 0 00-.524-.049 1 1 0 00-.461.174q-.343.2-.688.41c-.227.13-.453.267-.67.411-.55.361-1.1.713-1.645 1.061s-1.124.694-1.689 1.047a.536.536 0 00-.117-.13.254.254 0 01-.086-.106q-.645-1.068-1.26-2.149a16.035 16.035 0 01-1.011-2.243 1.5 1.5 0 00-.07-.174c-.023-.052-.054-.111-.086-.177a1 1 0 00-.338-.425.61.61 0 00-.229-.1.885.885 0 00-.321 0 1.361 1.361 0 01-.564-.035 3.18 3.18 0 01-.519-.166.806.806 0 00-.644-.072.825.825 0 00-.394.477l-.037.17a1.223 1.223 0 00-.06.18q-.213.96-.409 1.924-.192.945-.454 1.879-.27.964-.556 1.925-.3.941-.518 1.916c-.071.317-.147.631-.229.94a5.243 5.243 0 01-.3.923 2.553 2.553 0 00-.129.414 1.862 1.862 0 00-.012.793 9.611 9.611 0 00.257 1.17.38.38 0 00.106.183.422.422 0 00.193.13c.235.052.472.092.712.122s.477.067.72.086a.584.584 0 00.392-.109.812.812 0 00.211-.377l.184-.685a4.8 4.8 0 00.164-.669 11.794 11.794 0 01.281-1.3 8.876 8.876 0 00.248-1.323 5.733 5.733 0 01.27-1.247q.221-.606.395-1.239a.316.316 0 01.063-.127.609.609 0 00.106-.154 1.85 1.85 0 00.148.156c.053.034.1.07.158.1.3.5.606 1.006.911 1.517a16.288 16.288 0 01.85 1.572 3.619 3.619 0 00.2.376 3.679 3.679 0 00.237.348.778.778 0 00.347.265.734.734 0 00.418 0c.143-.041.278-.084.409-.128a2.29 2.29 0 00.366-.189.951.951 0 00.286-.241c.09-.087.179-.174.271-.261a6.631 6.631 0 011.057-.843c.387-.238.768-.488 1.143-.74.014-.011.037-.011.073 0a.327.327 0 01.1.038l.055.082a.089.089 0 01.022.074 6.885 6.885 0 00-.152.5 3.269 3.269 0 00-.133.484c-.077.336-.156.668-.231.992s-.129.678-.183 1.019q-.13.658-.241 1.3-.112.665-.208 1.331a.626.626 0 00.124.483.683.683 0 00.44.279c.212.041.429.079.657.11s.446.064.66.093a1.048 1.048 0 00.7-.146 1.074 1.074 0 00.4-.556c.038-.133.076-.265.112-.4s.069-.267.1-.4c.144-.9.292-1.788.435-2.673a17.2 17.2 0 01.643-2.617l.025-.135.026-.137q.086-.546.192-1.1c.068-.361.132-.725.188-1.088.059-.306.11-.612.157-.919l.14-.921a.622.622 0 00-.06-.433.751.751 0 00-.403-.245zm53.889 6.164c-.276-.052-.564-.09-.864-.121s-.571-.074-.845-.1a25.909 25.909 0 00-1.835-.118c-.3-.009-.581-.011-.869-.007s-.583.018-.871.009l-1.768-.13q-.886-.084-1.776-.259a2.718 2.718 0 00-.31-.043 2.161 2.161 0 00-.367.006 6.485 6.485 0 00-.666.049.281.281 0 00-.215.068.678.678 0 00-.17.16 1.519 1.519 0 00-.167.313 1 1 0 00-.079.306c-.027.333-.049.665-.066 1s-.035.672-.051 1.016c-.022.252-.037.507-.046.759s-.049.521-.083.772c-.054.48-.109.954-.173 1.422s-.122.96-.175 1.44c-.04.343-.07.691-.088 1.047a6.318 6.318 0 01-.141 1.045 3.621 3.621 0 00-.132.716 5.17 5.17 0 00-.018.414c.005.382.026.763.065 1.148a.916.916 0 00.171.516.81.81 0 00.426.3c.174.063.348.116.525.165a2.855 2.855 0 00.532.095c.522.053 1.043.1 1.57.141.249.018.507.033.768.04q1.181.089 2.341.168 1.108.077 2.2.147c.727.046 1.454.089 2.182.133l.41.024c.132 0 .264-.009.4-.011a.516.516 0 00.329-.121.461.461 0 00.142-.3c.034-.194.065-.393.087-.6a3.452 3.452 0 00.039-.379 1.389 1.389 0 000-.241 1.14 1.14 0 00-.427-.975 1.554 1.554 0 00-1.009-.4q-.8 0-1.586-.011-.8-.015-1.579-.1c-.459-.065-.917-.13-1.377-.2a9.843 9.843 0 00-1.381-.134 1.485 1.485 0 01-.667-.135c-.219-.1-.433-.188-.639-.274a.472.472 0 01-.3-.3 1.027 1.027 0 01-.013-.52.248.248 0 01.123-.214 1.21 1.21 0 01.428-.019c.494.051 1 .1 1.519.147s1.01.086 1.518.142a2.265 2.265 0 00.492.051 3.049 3.049 0 00.483-.037 1.216 1.216 0 00.766-.313.892.892 0 00.225-.728 3.754 3.754 0 00-.1-.7l-.166-.7a.634.634 0 00-.243-.343 1.09 1.09 0 00-.412-.165 12.257 12.257 0 00-1.456-.118c-.481-.022-.96-.057-1.44-.1-.725-.065-1.124-.154-1.2-.264a2.952 2.952 0 01-.04-1.093 1.111 1.111 0 01.032-.187 1.153 1.153 0 01.033-.187 1.014 1.014 0 01.209-.451c.078-.1.25-.13.518-.1a11.662 11.662 0 001.694.107 12.574 12.574 0 011.7.1 9.321 9.321 0 001.784.082 7.945 7.945 0 011.8.109.424.424 0 00.374-.1.524.524 0 00.227-.3c.054-.309.1-.623.142-.943s.094-.633.123-.942a.573.573 0 00-.095-.456.706.706 0 00-.472-.218zm-18.122 2.637a.253.253 0 00-.054-.161.679.679 0 01-.1-.2 6.329 6.329 0 00-.392-.664 2.251 2.251 0 00-.539-.56 1.158 1.158 0 01-.209-.194c-.063-.077-.124-.153-.187-.228-.319-.3-.639-.606-.956-.919a2.532 2.532 0 00-1.158-.648.316.316 0 01-.1-.027c-.022-.014-.049-.036-.081-.061a7.644 7.644 0 00-1.422-.752 5.1 5.1 0 00-1.589-.342 1.785 1.785 0 01-.24-.047c-.079-.03-.15-.058-.219-.078a3.531 3.531 0 00-.884-.228h-.016a3.4 3.4 0 00-.949.021c-.238.028-.481.05-.729.064s-.493.06-.731.1a.445.445 0 00-.208.114.585.585 0 00-.148.189.983.983 0 00-.1.264.527.527 0 000 .279 1.741 1.741 0 01.028.734c-.043.238-.077.478-.109.716s-.048.458-.088.685-.078.448-.1.666c-.054.42-.1.845-.129 1.269s-.092.845-.145 1.269l-.188 1.454a7.546 7.546 0 01-.326 1.419 4.709 4.709 0 00-.276 2.139.922.922 0 00.24.656 1.191 1.191 0 00.684.3c.284.047.568.1.85.141a2.163 2.163 0 00.867 0 .463.463 0 01.254 0c.079.023.162.044.245.065.27.056.534.116.79.183s.523.112.791.18v-.018a.187.187 0 01.043-.063.228.228 0 00.088.027.166.166 0 01.107.012 3.857 3.857 0 001.138.132 2.224 2.224 0 001.105-.361.847.847 0 01.265-.11 2.782 2.782 0 01.3-.088 5.479 5.479 0 00.79-.313 3.618 3.618 0 00.714-.46l.627-.489c.208-.162.409-.317.607-.491.144-.11.284-.224.429-.337a2.37 2.37 0 00.394-.358 5.992 5.992 0 00.424-.477c.123-.172.243-.351.356-.536a2.179 2.179 0 00.182-.38 1.988 1.988 0 00.131-.421 4 4 0 00.109-.735 4.9 4.9 0 01.125-.716l.015-.154a.925.925 0 00-.181-.659.856.856 0 01-.145-.803zM66.489 153a2 2 0 01-.529.931 2.346 2.346 0 01-.888.6 5.9 5.9 0 01-2.043.479 10.146 10.146 0 01-1.7-.061l-.407-.05a.574.574 0 01-.388-.2.616.616 0 01-.109-.431 2.287 2.287 0 01.018-.294l.035-.291c.034-.275.068-.548.1-.822s.068-.548.1-.822h.071c.03-.447.055-.892.074-1.328s.053-.874.072-1.313c.011-.195.026-.39.037-.586s.024-.392.037-.586l.005-.034a.586.586 0 01.286-.47.652.652 0 01.434-.086.93.93 0 01.172.039c.318.108.634.2.954.288s.637.2.953.3a4.9 4.9 0 011.525.868 3.556 3.556 0 01.966 1.48 5.855 5.855 0 01.317 1.162 2.78 2.78 0 01.012.712 2.708 2.708 0 01-.104.515z"/></g></g></svg>